<svg width="5" height="20" viewBox="0 0 5 20" fill="none" xmlns="http://www.w3.org/2000/svg">
<path fill-rule="evenodd" clip-rule="evenodd" d="M5 10C5 11.3813 3.88125 12.5 2.5 12.5C1.11875 12.5 0 11.3813 0 10C0 8.61875 1.11875 7.5 2.5 7.5C3.88125 7.5 5 8.61875 5 10ZM5 2.5C5 3.88125 3.88125 5 2.5 5C1.11875 5 0 3.88125 0 2.5C0 1.11875 1.11875 0 2.5 0C3.88125 0 5 1.11875 5 2.5ZM5 17.5C5 18.8813 3.88125 20 2.5 20C1.11875 20 0 18.8813 0 17.5C0 16.1187 1.11875 15 2.5 15C3.88125 15 5 16.1187 5 17.5Z" fill="#137D60"/>
</svg>
